<svg width="29" height="24" viewBox="0 0 29 24" fill="none" xmlns="http://www.w3.org/2000/svg">
<path d="M24.9037 7.07441H17.8796V3.07573C17.8786 2.26034 17.5418 1.47858 16.9433 0.90192C16.3447 0.325453 15.5332 0.000937365 14.6868 0H3.19278C2.34636 0.000915395 1.53485 0.325424 0.936246 0.90192C0.337839 1.47862 0.000973038 2.2604 0 3.07573V10.4575C0.000950233 11.2729 0.337809 12.0546 0.936246 12.6313C1.5349 13.2077 2.34642 13.5323 3.19278 13.5332V14.8186C3.19231 15.0614 3.2669 15.2987 3.40682 15.5006C3.54698 15.7025 3.74605 15.8594 3.9791 15.9517C4.2131 16.046 4.47084 16.0709 4.71958 16.0233C4.9683 15.9757 5.1966 15.8576 5.37547 15.6844C5.39828 15.6626 5.41918 15.6393 5.43818 15.6141L7.02746 13.5332H10.2169V17.5319C10.2178 18.3472 10.5547 19.129 11.1531 19.7057C11.7518 20.2821 12.5633 20.6066 13.4097 20.6076H20.4885L22.7237 22.7604C22.9632 22.9908 23.2879 23.1203 23.6265 23.1201C23.965 23.1201 24.2895 22.9906 24.529 22.7599C24.7684 22.5294 24.9031 22.2168 24.9033 21.8907V20.6076C25.7498 20.6067 26.5613 20.2822 27.1597 19.7057C27.7584 19.129 28.095 18.3472 28.0961 17.5319V10.1501C28.0952 9.33473 27.7586 8.55297 27.1599 7.97631C26.5615 7.39961 25.7499 7.07533 24.9035 7.07439L24.9037 7.07441ZM6.70484 12.3029C6.50173 12.3029 6.31073 12.396 6.19053 12.5535L4.46965 14.8047V12.9181C4.46965 12.5782 4.18387 12.3029 3.8311 12.3029H3.19254C2.68464 12.3025 2.19767 12.1077 1.83843 11.7619C1.47949 11.4159 1.27732 10.9468 1.27685 10.4575V3.07572C1.27732 2.58644 1.47948 2.11732 1.83843 1.77126C2.19762 1.42547 2.68461 1.23072 3.19254 1.23026H14.6866C15.1945 1.23072 15.6814 1.42547 16.0407 1.77126C16.3996 2.11728 16.6018 2.58642 16.6022 3.07572V7.0744H13.4095C12.73 7.076 12.0692 7.2886 11.5247 7.68041L9.5209 3.43643C9.41733 3.21674 9.18998 3.07577 8.9396 3.07577C8.68921 3.07577 8.46186 3.21674 8.35829 3.43643L5.16551 10.203C5.01965 10.5122 5.16171 10.877 5.48289 11.0175C5.56556 11.0541 5.65559 11.0729 5.74658 11.0726C5.99696 11.0726 6.22455 10.9317 6.32812 10.7117L7.31873 8.61204H10.5616L10.607 8.70747C10.3545 9.15007 10.2203 9.64618 10.2167 10.1511V12.3029H6.70484ZM9.981 7.38175H7.89949L8.93955 5.17701L9.981 7.38175ZM26.8194 17.5316C26.8187 18.0209 26.6168 18.4898 26.2576 18.8359C25.8984 19.1819 25.4117 19.3764 24.9037 19.3771H24.2652C24.0958 19.3769 23.9333 19.4416 23.8136 19.5572C23.6939 19.6725 23.6266 19.8291 23.6266 19.9922V21.8905L21.2045 19.5572C21.085 19.4418 20.9225 19.3769 20.7534 19.3771H13.41C12.9021 19.3764 12.4153 19.1819 12.0561 18.8359C11.6969 18.4898 11.495 18.0209 11.4943 17.5316V10.1499C11.4948 9.66061 11.6969 9.19149 12.0559 8.84543C12.4151 8.49941 12.9021 8.30489 13.41 8.30443H24.904C25.4119 8.30489 25.8989 8.49941 26.2581 8.84543C26.617 9.19144 26.8192 9.66058 26.8197 10.1499L26.8194 17.5316Z" fill="black"/>
</svg>
